<svg width="650" height="650" viewBox="0 0 650 650" fill="none" xmlns="http://www.w3.org/2000/svg">
<rect width="650" height="650" rx="325" fill="url(#paint0_linear_119_10)"/>
<path d="M414.444 166.364H468.111C472.856 166.364 477.406 168.227 480.76 171.543C484.115 174.859 486 179.356 486 184.045V502.318C486 507.008 484.115 511.505 480.76 514.821C477.406 518.137 472.856 520 468.111 520H181.889C177.144 520 172.594 518.137 169.24 514.821C165.885 511.505 164 507.008 164 502.318V184.045C164 179.356 165.885 174.859 169.24 171.543C172.594 168.227 177.144 166.364 181.889 166.364H235.556V131H271.333V166.364H378.667V131H414.444V166.364ZM235.556 272.455V307.818H414.444V272.455H235.556ZM235.556 343.182V378.545H414.444V343.182H235.556Z" fill="white"/>
<defs>
<linearGradient id="paint0_linear_119_10" x1="167" y1="51" x2="463" y2="599" gradientUnits="userSpaceOnUse">
<stop stop-color="#0EA5E9"/>
<stop offset="1" stop-color="#D946EF"/>
</linearGradient>
</defs>
</svg>
